# xmcd
#
# Track frame offsets: 
#        150
#        15259
#        39123
#        55905
#        74403
#        94450
#        114435
#        128963
#        153064
#        174723
#        198048
#        218414
#        241016
#        260762
#        280488
#        305173
#
# Disc length: 4660 seconds
#
# Revision: 0
# Processed by: cddbd v1.5.2PL0 Copyright (c) Steve Scherf et al.
# Submitted via: ExactAudioCopy v0.95b4
#
DISCID=d8123210
DTITLE=Lil' Wayne - The Carter III
DYEAR=2008
DGENRE=Rap
TTITLE0=3 Peat
TTITLE1=Mr. Carter feat. Jay-Z
TTITLE2=A Milli
TTITLE3=Got Money feat. T~Pain
TTITLE4=Comfortable feat. Babyface
TTITLE5=Dr. Carter
TTITLE6=Phone Home
TTITLE7=Tie My Hands Feat. Robin Thicke
TTITLE8=Mrs. Officer Feat. Bobby Valentino
TTITLE9=Let The Beat Build
TTITLE10=Shoot Me Down feat. D.Smith
TTITLE11=Lollipop Feat. Static Major
TTITLE12=La La Feat. Brisco and Busta Rhymes
TTITLE13=Playing With Fire Feat. Betty Wright
TTITLE14=You Ain't Got Nuthin Feat. Juelz Santana and Fabolous
TTITLE15=Dontgetit
EXTD=
EXTT0=
EXTT1=
EXTT2=
EXTT3=
EXTT4=
EXTT5=
EXTT6=
EXTT7=
EXTT8=
EXTT9=
EXTT10=
EXTT11=
EXTT12=
EXTT13=
EXTT14=
EXTT15=
PLAYORDER=
